<?xml version="1.0" encoding="UTF-8"?>
<svg viewBox="0 0 32 32" xmlns="http://www.w3.org/2000/svg">
  <g data-name="Layer 48" id="Layer_48">
    <path d="M16,28A12,12,0,1,1,28,16,12,12,0,0,1,16,28ZM16,6A10,10,0,1,0,26,16,10,10,0,0,0,16,6Z" fill="#fdfdfd"/>
    <rect height="7" width="2" x="15" y="24" fill="#fdfdfd"/>
    <rect height="7" width="2" x="15" y="1" fill="#fdfdfd"/>
    <rect height="2" width="7" x="24" y="15" fill="#fdfdfd"/>
    <rect height="2" width="7" x="1" y="15" fill="#fdfdfd"/>
    <path d="M16,20a4,4,0,1,1,4-4A4,4,0,0,1,16,20Zm0-6a2,2,0,1,0,2,2A2,2,0,0,0,16,14Z" fill="#fdfdfd"/>
  </g>
</svg>
